<svg id="Ebene_1" data-name="Ebene 1" xmlns="http://www.w3.org/2000/svg" viewBox="0 0 119.16 12.45"><defs><style>.cls-1{fill:#0a0c10;}</style></defs><path class="cls-1" d="M58.58,18.4a1.43,1.43,0,0,1-.7.65,1.76,1.76,0,0,1-1,.12,2,2,0,0,1-.91-.35,1.93,1.93,0,0,1-.64-.75,1.6,1.6,0,0,1-.16-.48,2.07,2.07,0,0,1,0-.5,2.21,2.21,0,0,1,.24-1,2.74,2.74,0,0,1,1.48-1.3,3.43,3.43,0,0,1,2-.17,3.51,3.51,0,0,1,1.75,1,5,5,0,0,1,1,1.68,7.59,7.59,0,0,1,.27.93c0,.16.06.32.09.47a2.83,2.83,0,0,1,.05.5,6,6,0,0,1-.21,1.93,5.83,5.83,0,0,1-.8,1.76,4.2,4.2,0,0,1-1.41,1.34,3.31,3.31,0,0,1-1.92.42,2,2,0,0,1-.95-.34,1.93,1.93,0,0,1-.67-.75,1.89,1.89,0,0,1-.21-1,1.41,1.41,0,0,1,.12-.5,1.39,1.39,0,0,1,.28-.43,1.42,1.42,0,0,1,.9-.43,1,1,0,0,1,.25,0l.13,0,.12,0a1.12,1.12,0,0,1,.43.27,1,1,0,0,1,.24.94.85.85,0,0,1-.27.42.72.72,0,0,1-.47.16,0,0,0,0,1,0-.05,0,0,0,0,1,0-.05h0a.59.59,0,0,0,.39-.15.7.7,0,0,0,.21-.36.81.81,0,0,0-.23-.77.88.88,0,0,0-.36-.21,1,1,0,0,0-.42,0,1.16,1.16,0,0,0-.72.38,1.13,1.13,0,0,0-.29.76,1.55,1.55,0,0,0,.2.81A1.64,1.64,0,0,0,57,24a1.66,1.66,0,0,0,.78.24,2.8,2.8,0,0,0,1.65-.4,3.87,3.87,0,0,0,1.22-1.23A5.63,5.63,0,0,0,61.3,21a5.47,5.47,0,0,0,.15-1.75c0-.15,0-.29-.05-.43l-.09-.44a7.46,7.46,0,0,0-.26-.84,4.26,4.26,0,0,0-.9-1.47l-.31-.28a2.62,2.62,0,0,0-.34-.24,3.24,3.24,0,0,0-.37-.19,2.7,2.7,0,0,0-.4-.14,2.88,2.88,0,0,0-1.67,0,2.38,2.38,0,0,0-1.3,1A2,2,0,0,0,55.64,18,1.79,1.79,0,0,0,57,19a1.72,1.72,0,0,0,.87-.07,1.29,1.29,0,0,0,.66-.56.06.06,0,1,1,.1.06Z" transform="translate(0 -12.24)"/><path class="cls-1" d="M60.15,15.91,60,15.78l-.13-.14-.3-.24a2.92,2.92,0,0,0-.68-.35,3.18,3.18,0,0,0-.75-.19,3.94,3.94,0,0,0-.77,0,7,7,0,0,0-.78.11,7.32,7.32,0,0,0-.76.23,8.25,8.25,0,0,0-1.45.67l-.71.41-.37.2-.37.18a9.91,9.91,0,0,1-1.57.59,8.37,8.37,0,0,1-3.34.32,5.29,5.29,0,0,1-1.64-.46,3.73,3.73,0,0,1-.73-.46,3,3,0,0,1-.59-.65,2.68,2.68,0,0,1-.44-1.67v-.11l0-.11,0-.21.06-.22a.9.9,0,0,1,.08-.21,2,2,0,0,1,.52-.71A2,2,0,0,1,47,12.27a1.54,1.54,0,0,1,.8.41,1.88,1.88,0,0,1,.27.36,1.62,1.62,0,0,1,.15.42,1.36,1.36,0,0,1,0,.45,1.11,1.11,0,0,1-.12.43,1.11,1.11,0,0,1-1.14.59.83.83,0,0,1-.42-.18.84.84,0,0,1-.31-.82h0a.09.09,0,0,1,.1-.06.09.09,0,0,1,.07.09.65.65,0,0,0,.25.64.68.68,0,0,0,.33.13.94.94,0,0,0,.37,0,.93.93,0,0,0,.54-.45,1.14,1.14,0,0,0,.07-.73,1.43,1.43,0,0,0-.14-.34,1.09,1.09,0,0,0-.23-.29,1.21,1.21,0,0,0-.65-.32,1.68,1.68,0,0,0-1.39.41,1.74,1.74,0,0,0-.43.61.85.85,0,0,0-.06.17,1.16,1.16,0,0,0,0,.18l0,.2v.19a2.3,2.3,0,0,0,.4,1.44,2.91,2.91,0,0,0,1.18,1,4.9,4.9,0,0,0,1.51.41,8.08,8.08,0,0,0,3.16-.34,10,10,0,0,0,1.49-.58c.12-.06.25-.11.36-.18l.36-.19.71-.41a9.67,9.67,0,0,1,1.53-.7,5.74,5.74,0,0,1,.81-.23,6.18,6.18,0,0,1,.85-.11,3.53,3.53,0,0,1,3.08,1.33.18.18,0,0,1,0,.26.18.18,0,0,1-.25,0Z" transform="translate(0 -12.24)"/><path class="cls-1" d="M52.77,14.47a.34.34,0,0,0,.28.14.33.33,0,0,0,.27-.15.39.39,0,0,0,.08-.31.43.43,0,0,0-.13-.29.58.58,0,0,0-.58-.17.63.63,0,0,0-.27.16.8.8,0,0,0-.18.27.84.84,0,0,0,0,.64l0,.07a.43.43,0,0,0,0,.07l.1.14.12.12a.58.58,0,0,0,.12.1.85.85,0,0,0,.63.09,2.7,2.7,0,0,0,.66-.22c.44-.19.88-.41,1.35-.57a4.76,4.76,0,0,1,1.45-.31,4.65,4.65,0,0,1,.74,0l.37.07c.11,0,.24.06.35.11a5.47,5.47,0,0,1,1.32.67.09.09,0,1,1-.1.14h0a5.6,5.6,0,0,0-1.28-.62l-.34-.1-.35-.06a3.35,3.35,0,0,0-.71,0,4.74,4.74,0,0,0-1.38.3c-.45.16-.88.37-1.33.56a3,3,0,0,1-.71.23l-.2,0H53l-.1,0a.71.71,0,0,1-.2,0l-.18-.09-.16-.13-.13-.14a.91.91,0,0,0-.11-.16.41.41,0,0,0-.05-.09.36.36,0,0,0,0-.09,1.05,1.05,0,0,1,0-.78.94.94,0,0,1,.23-.33.7.7,0,0,1,.35-.19.78.78,0,0,1,.4,0,.69.69,0,0,1,.33.23.6.6,0,0,1,.14.36.51.51,0,0,1-.12.38.64.64,0,0,1-.15.13.45.45,0,0,1-.2,0,.38.38,0,0,1-.32-.19s0,0,0,0S52.76,14.46,52.77,14.47Z" transform="translate(0 -12.24)"/><path class="cls-1" d="M48.81,17.58.05,17.43a.05.05,0,0,1,0-.05,0,0,0,0,1,.05-.05l48.76-.16a.21.21,0,0,1,0,.41Z" transform="translate(0 -12.24)"/><path class="cls-1" d="M46.9,14a.32.32,0,0,1-.33.32.32.32,0,0,1-.32-.32.32.32,0,0,1,.32-.33A.33.33,0,0,1,46.9,14Z" transform="translate(0 -12.24)"/><path class="cls-1" d="M53.11,14.38a.21.21,0,0,1-.21.21.21.21,0,0,1-.21-.21.21.21,0,0,1,.21-.21A.22.22,0,0,1,53.11,14.38Z" transform="translate(0 -12.24)"/><circle class="cls-1" cx="58.23" cy="5.93" r="0.43"/><path class="cls-1" d="M63.17,18.34a1.27,1.27,0,0,0,.67.56,1.67,1.67,0,0,0,.86.07A1.77,1.77,0,0,0,66,18a2,2,0,0,0,.13-.84,2,2,0,0,0-.25-.8,2.34,2.34,0,0,0-1.3-1,2.88,2.88,0,0,0-1.67,0,2.58,2.58,0,0,0-.39.14,2.69,2.69,0,0,0-.38.19,2.62,2.62,0,0,0-.34.24l-.31.28a4.41,4.41,0,0,0-.9,1.47,7.46,7.46,0,0,0-.26.84l-.09.44c0,.14,0,.28,0,.43A5.47,5.47,0,0,0,60.35,21,5.63,5.63,0,0,0,61,22.64a4,4,0,0,0,1.22,1.23,2.8,2.8,0,0,0,1.65.4,1.62,1.62,0,0,0,1.35-.84,1.55,1.55,0,0,0,.2-.81,1.13,1.13,0,0,0-.29-.76,1.16,1.16,0,0,0-.72-.38,1,1,0,0,0-.42,0,.78.78,0,0,0-.35.21.82.82,0,0,0-.24.77.78.78,0,0,0,.21.36A.61.61,0,0,0,64,23h0a0,0,0,0,1,0,.05.05.05,0,0,1,0,.05.72.72,0,0,1-.47-.16.85.85,0,0,1-.27-.42,1,1,0,0,1,.24-.94A1.21,1.21,0,0,1,64,21.3l.12,0,.13,0a1,1,0,0,1,.25,0,1.42,1.42,0,0,1,.9.43,1.23,1.23,0,0,1,.28.43,1.41,1.41,0,0,1,.12.5,1.89,1.89,0,0,1-.21,1,2,2,0,0,1-.66.75,2.1,2.1,0,0,1-1,.34A3.26,3.26,0,0,1,62,24.26a4.14,4.14,0,0,1-1.42-1.34,5.83,5.83,0,0,1-.8-1.76,6,6,0,0,1-.21-1.93,4.23,4.23,0,0,1,0-.5l.09-.47a6.2,6.2,0,0,1,.28-.93,4.8,4.8,0,0,1,1-1.68,3.34,3.34,0,0,1,3.72-.83,2.74,2.74,0,0,1,1.48,1.3,2.22,2.22,0,0,1,.25,1,2.73,2.73,0,0,1,0,.5,1.92,1.92,0,0,1-.15.48,2,2,0,0,1-.65.75,2,2,0,0,1-.91.35,1.71,1.71,0,0,1-1-.12,1.41,1.41,0,0,1-.71-.65.07.07,0,0,1,0-.08A.06.06,0,0,1,63.17,18.34Z" transform="translate(0 -12.24)"/><path class="cls-1" d="M61.2,15.71a3.55,3.55,0,0,1,3.08-1.33,6,6,0,0,1,.85.11,5.87,5.87,0,0,1,.82.23,10,10,0,0,1,1.52.7l.71.41.36.19c.12.07.24.12.36.18a9.7,9.7,0,0,0,1.5.58,8,8,0,0,0,3.15.34,4.83,4.83,0,0,0,1.51-.41,2.91,2.91,0,0,0,1.18-1,2.31,2.31,0,0,0,.41-1.44v-.19l0-.2c0-.06,0-.12,0-.18a.85.85,0,0,0-.06-.17,1.62,1.62,0,0,0-.43-.61,1.67,1.67,0,0,0-1.39-.41,1.25,1.25,0,0,0-.65.32,1.21,1.21,0,0,0-.36.63,1.21,1.21,0,0,0,.06.73.92.92,0,0,0,.55.45.87.87,0,0,0,.36,0,.67.67,0,0,0,.59-.77.07.07,0,0,1,.06-.09.08.08,0,0,1,.1.06h0a.86.86,0,0,1-.3.82.86.86,0,0,1-.43.18,1.09,1.09,0,0,1-.44,0,1.11,1.11,0,0,1-.69-.56,1,1,0,0,1-.13-.43,1.7,1.7,0,0,1,0-.45,1.62,1.62,0,0,1,.15-.42,2.42,2.42,0,0,1,.27-.36,1.54,1.54,0,0,1,.8-.41,2,2,0,0,1,1.66.46,2.07,2.07,0,0,1,.53.71l.08.21c0,.07,0,.15,0,.22l0,.21,0,.11v.11a2.75,2.75,0,0,1-1,2.32,3.46,3.46,0,0,1-.73.46,5.29,5.29,0,0,1-1.64.46,8.37,8.37,0,0,1-3.34-.32,9.8,9.8,0,0,1-1.56-.59l-.38-.18-.37-.2-.71-.41a8.25,8.25,0,0,0-1.45-.67,6.65,6.65,0,0,0-.76-.23,7,7,0,0,0-.78-.11,3.94,3.94,0,0,0-.77,0,3.18,3.18,0,0,0-.75.19,2.92,2.92,0,0,0-.68.35l-.3.24-.13.14-.12.13v0a.18.18,0,0,1-.25,0A.19.19,0,0,1,61.2,15.71Z" transform="translate(0 -12.24)"/><path class="cls-1" d="M68.92,14.5a.37.37,0,0,1-.32.19.45.45,0,0,1-.2,0,.64.64,0,0,1-.15-.13.57.57,0,0,1,0-.74.62.62,0,0,1,.32-.23.78.78,0,0,1,.4,0,.7.7,0,0,1,.35.19.94.94,0,0,1,.23.33,1.05,1.05,0,0,1,0,.78l0,.09,0,.09-.11.16-.13.14-.16.13-.18.09a.71.71,0,0,1-.2,0l-.1,0h-.1l-.19,0a2.89,2.89,0,0,1-.72-.23c-.45-.19-.88-.4-1.33-.56a4.74,4.74,0,0,0-1.38-.3,3.38,3.38,0,0,0-.71,0l-.35.06-.34.1a5.81,5.81,0,0,0-1.28.62h0a.08.08,0,0,1-.12,0,.09.09,0,0,1,0-.12,5.23,5.23,0,0,1,1.31-.67c.12-.05.24-.07.36-.11l.36-.07a4.71,4.71,0,0,1,.75,0,4.82,4.82,0,0,1,1.45.31c.46.16.9.38,1.34.57a2.84,2.84,0,0,0,.66.22.85.85,0,0,0,.63-.09l.13-.1.11-.12.1-.14a.43.43,0,0,0,0-.07l0-.07a.88.88,0,0,0,0-.64,1,1,0,0,0-.19-.27.58.58,0,0,0-.85,0,.48.48,0,0,0,0,.6.33.33,0,0,0,.27.15.31.31,0,0,0,.28-.14s0,0,0,0S68.93,14.48,68.92,14.5Z" transform="translate(0 -12.24)"/><path class="cls-1" d="M72.84,17.17l46.27.16a0,0,0,0,1,0,.05.05.05,0,0,1,0,.05l-46.27.15a.21.21,0,0,1,0-.41Z" transform="translate(0 -12.24)"/><path class="cls-1" d="M74.76,14a.32.32,0,1,0,.64,0,.32.32,0,1,0-.64,0Z" transform="translate(0 -12.24)"/><path class="cls-1" d="M68.54,14.38a.21.21,0,0,0,.21.21.21.21,0,0,0,.21-.21.21.21,0,0,0-.21-.21A.22.22,0,0,0,68.54,14.38Z" transform="translate(0 -12.24)"/><circle class="cls-1" cx="63.43" cy="5.93" r="0.43"/></svg>